<?xml version="1.0" encoding="UTF-8" standalone="no"?>
<svg
   xmlns:osb="http://www.openswatchbook.org/uri/2009/osb"
   xmlns:dc="http://purl.org/dc/elements/1.1/"
   xmlns:cc="http://creativecommons.org/ns#"
   xmlns:rdf="http://www.w3.org/1999/02/22-rdf-syntax-ns#"
   xmlns:svg="http://www.w3.org/2000/svg"
   xmlns="http://www.w3.org/2000/svg"
   xml:space="preserve"
   viewBox="0 0 383.395 383.395"
   height="408.95465"
   width="408.95465"
   y="0px"
   x="0px"
   id="Capa_1"
   version="1.1"><metadata
     id="metadata3143"><rdf:RDF><cc:Work
         rdf:about=""><dc:format>image/svg+xml</dc:format><dc:type
           rdf:resource="http://purl.org/dc/dcmitype/StillImage" /><dc:title></dc:title></cc:Work></rdf:RDF></metadata><defs
     id="defs3141"><linearGradient
       osb:paint="solid"
       id="linearGradient6021"><stop
         id="stop6019"
         offset="0"
         style="stop-color:#000000;stop-opacity:1;" /></linearGradient><filter
       id="filter4688"
       style="color-interpolation-filters:sRGB;"><feFlood
         id="feFlood4678"
         result="flood"
         flood-color="rgb(0,0,0)"
         flood-opacity="0.69999999999999996" /><feComposite
         id="feComposite4680"
         result="composite1"
         operator="in"
         in2="SourceGraphic"
         in="flood" /><feGaussianBlur
         id="feGaussianBlur4682"
         result="blur"
         stdDeviation="4"
         in="composite1" /><feOffset
         id="feOffset4684"
         result="offset"
         dy="4.57967e-15"
         dx="4.41314e-15" /><feComposite
         id="feComposite4686"
         result="composite2"
         operator="over"
         in2="offset"
         in="SourceGraphic" /></filter></defs><rect
     ry="52.831501"
     y="0"
     x="0"
     height="383.39499"
     width="383.39499"
     id="rect1003"
     style="fill:#f0f0f0;fill-opacity:1;stroke:none;stroke-width:0.35433072;stroke-miterlimit:4;stroke-dasharray:none;stroke-dashoffset:0;stroke-opacity:1" /><g
     id="g3109" /><g
     id="g3111" /><g
     id="g3113" /><g
     id="g3115" /><g
     id="g3117" /><g
     id="g3119" /><g
     id="g3121" /><g
     id="g3123" /><g
     id="g3125" /><g
     id="g3127" /><g
     id="g3129" /><g
     id="g3131" /><g
     id="g3133" /><g
     id="g3135" /><g
     id="g3137" /><g
     style="opacity:0.97"
     id="layer1" /><g
     style="display:none"
     id="layer2"><path
       style="opacity:0.52600002;fill:#0023c6;fill-opacity:1;stroke:none;stroke-width:4.6875;stroke-miterlimit:4;stroke-dasharray:none;stroke-opacity:1"
       id="path6061"
       d="m 40.687388,261.77176 a 160.7016,160.7016 0 0 1 55.045766,-183.865661 160.7016,160.7016 0 0 1 191.928676,0 160.7016,160.7016 0 0 1 55.04577,183.865661 L 191.69749,206.80858 Z" /></g><g
     transform="translate(-1.2189881e-6,-16.875002)"
     id="g4553"><path
       style="opacity:0.52600002;fill:#5b5b5b;fill-opacity:1;stroke:none;stroke-width:4.6875;stroke-miterlimit:4;stroke-dasharray:none;stroke-opacity:1"
       d="m 286.6624,116.95297 -42.45117,68.85864 a 80.350792,80.350792 0 0 1 27.724,60.72327 h 80.2771 a 160.7016,160.7016 0 0 0 -64.53553,-128.90259 160.7016,160.7016 0 0 0 -1.0144,-0.67932 z"
       id="path4551" /><path
       style="opacity:1;fill:#4559d4;fill-opacity:1;stroke:none;stroke-width:4.6875;stroke-miterlimit:4;stroke-dasharray:none;stroke-opacity:1"
       d="m 195.60588,85.892787 a 160.7016,160.7016 0 0 0 -10.3125,0.0696 A 160.7016,160.7016 0 0 0 95.747471,117.63231 160.7016,160.7016 0 0 0 31.182653,246.5349 h 80.280767 a 80.350792,80.350792 0 0 1 32.26685,-64.45129 80.350792,80.350792 0 0 1 88.14148,-4.97498 l 51.11023,-62.56348 a 160.7016,160.7016 0 0 0 -87.3761,-28.652343 z"
       id="path6066" /><path
       style="opacity:0.97000002;fill:#000000;fill-opacity:1;fill-rule:evenodd;stroke:none;stroke-width:0.93750006px;stroke-linecap:butt;stroke-linejoin:miter;stroke-opacity:1"
       d="M 183.42174,258.17882 185.77316,233.53353 304.0347,88.773997 205.9409,247.89257 183.42174,258.17882"
       id="path4561" /></g><g
     style="fill:#505050;fill-opacity:1"
     transform="matrix(0.8,0,0,0.8,41.135004,42.4645)"
     id="g4591"><circle
       style="opacity:1;fill:#505050;fill-opacity:1;stroke:none;stroke-width:4.6875;stroke-miterlimit:4;stroke-dasharray:none;stroke-opacity:1"
       id="path4565"
       cx="124.21876"
       cy="296.69751"
       r="22.968752" /><circle
       style="opacity:1;fill:#505050;fill-opacity:1;stroke:none;stroke-width:4.68749952;stroke-miterlimit:4;stroke-dasharray:none;stroke-opacity:1"
       id="path4565-4"
       cx="188.20312"
       cy="296.69751"
       r="22.96875" /><circle
       style="opacity:1;fill:#505050;fill-opacity:1;stroke:none;stroke-width:4.68749952;stroke-miterlimit:4;stroke-dasharray:none;stroke-opacity:1"
       id="path4565-9"
       cx="252.18748"
       cy="296.69751"
       r="22.96875" /></g></svg>