<svg id="Layer_1" data-name="Layer 1" xmlns="http://www.w3.org/2000/svg" viewBox="0 0 122.88 122.88"><defs><style>.cls-1{fill:#6e6e6e;}.cls-1,.cls-2,.cls-3,.cls-4,.cls-5{fill-rule:evenodd;}.cls-2{fill:#fb434c;}.cls-3{fill:#33a867;}.cls-4{fill:#47bcff;}.cls-5{fill:#fdba21;}</style></defs><title>themes</title><path class="cls-1" d="M79.37,36.36l7.47,7.47a1.66,1.66,0,0,1,0,2.32l-12,12a1.59,1.59,0,0,1-.33.25l9.94,9.94a2,2,0,0,1,0,2.78l-2,2a2,2,0,0,1-2.78,0L49.54,42.91a2,2,0,0,1,0-2.79l2-2a2,2,0,0,1,2.78,0L64.81,48.68a1.72,1.72,0,0,1,.26-.33l12-12a1.66,1.66,0,0,1,2.32,0Zm-2.8,37.19L62.34,92.18,56.16,86l4.67-10.37-7.52,7.52-6.42-6.42,4.67-10.37-7.51,7.52L38.2,68l7.52-7.52L35.35,65.19l-4.51-4.51L49.47,46.45l27.1,27.1ZM78.9,40.3l4,4a1.15,1.15,0,0,1,0,1.62l-1.16,1.16a1.16,1.16,0,0,1-1.62,0l-4-4a1.15,1.15,0,0,1,0-1.62l1.16-1.16a1.13,1.13,0,0,1,1.61,0Z"/><path class="cls-2" d="M122.88,13.28v9.09A2.9,2.9,0,0,1,120,25.26H2.89A2.9,2.9,0,0,1,0,22.37V13.28a2.9,2.9,0,0,1,2.89-2.89H120a2.9,2.9,0,0,1,2.89,2.89Z"/><path class="cls-3" d="M122.88,101.43v9.09a2.9,2.9,0,0,1-2.89,2.89H2.89A2.9,2.9,0,0,1,0,110.52v-9.09a2.9,2.9,0,0,1,2.89-2.89H120a2.9,2.9,0,0,1,2.89,2.89Z"/><path class="cls-4" d="M12,0h9.1A2.9,2.9,0,0,1,24,2.89V120a2.9,2.9,0,0,1-2.89,2.89H12A2.9,2.9,0,0,1,9.08,120V2.89A2.9,2.9,0,0,1,12,0Z"/><path class="cls-5" d="M101.82,0h9.1a2.9,2.9,0,0,1,2.89,2.89V120a2.9,2.9,0,0,1-2.89,2.89h-9.1A2.9,2.9,0,0,1,98.93,120V2.89A2.9,2.9,0,0,1,101.82,0Z"/></svg>