<svg version="1.1" viewBox="0 0 122.88 122.88" data-name="Layer 1" id="Layer_1">
  <defs id="defs817">
    <style id="style815">
      .cls-1 {
        fill: #ffffff;
      }

      .cls-1,
      .cls-2,
      .cls-3,
      .cls-4,
      .cls-5 {
        fill-rule: evenodd;
      }

      .cls-2 {
        fill: #fb434c;
      }

      .cls-3 {
        fill: #33a867;
      }

      .cls-4 {
        fill: #47bcff;
      }

      .cls-5 {
        fill: #fdba21;
      }
    </style>
  </defs>
  <title id="title819">themes</title>
  <path
    style="fill:#ffffff;fill-opacity:1;fill-rule:evenodd;stroke:#6c6c6c;stroke-width:0.97290999;stroke-miterlimit:0;stroke-dasharray:none;stroke-opacity:1"
    id="path821"
    d="m 78.87941,37.034552 7.267638,7.267637 a 1.6150306,1.6150306 0 0 1 0,2.257151 l -11.67492,11.67492 a 1.5469269,1.5469269 0 0 1 -0.32106,0.243228 l 9.670725,9.670725 a 1.94582,1.94582 0 0 1 0,2.70469 l -1.94582,1.94582 a 1.94582,1.94582 0 0 1 -2.70469,0 L 49.857505,43.407112 a 1.94582,1.94582 0 0 1 0,-2.714419 l 1.94582,-1.94582 a 1.94582,1.94582 0 0 1 2.70469,0 l 10.205826,10.27393 a 1.6734052,1.6734052 0 0 1 0.252956,-0.321061 l 11.67492,-11.67492 a 1.6150306,1.6150306 0 0 1 2.257151,0 z m -2.724148,36.182522 -13.844509,18.125313 -6.012584,-6.012584 4.54349,-10.089076 -7.316283,7.316283 -6.246082,-6.246082 4.543489,-10.089077 -7.306554,7.316283 -5.691523,-5.72071 7.316283,-7.316284 -10.089077,4.582407 -4.387824,-4.387825 18.125314,-13.844509 z m 2.266881,-32.349257 3.891639,3.89164 a 1.1188465,1.1188465 0 0 1 0,1.576114 l -1.128575,1.128576 a 1.1285756,1.1285756 0 0 1 -1.576114,0 l -3.89164,-3.89164 a 1.1188465,1.1188465 0 0 1 0,-1.576115 l 1.128575,-1.128575 a 1.0993883,1.0993883 0 0 1 1.566385,0 z"
    class="cls-1" />
  <path id="path823"
    d="m 121.21072,14.579789 v 8.843752 a 2.821439,2.821439 0 0 1 -2.80198,2.81171 H 4.4712542 a 2.821439,2.821439 0 0 1 -2.8117099,-2.81171 v -8.843752 a 2.821439,2.821439 0 0 1 2.8117099,-2.81171 H 118.40874 a 2.821439,2.821439 0 0 1 2.81171,2.81171 z"
    class="cls-2"
    style="fill:#fb434c;fill-rule:evenodd;stroke-width:1;stroke-miterlimit:0;stroke-dasharray:none;stroke:#6c6c6c;stroke-opacity:1" />
  <path id="path825"
    d="m 121.21072,100.3418 v 8.84376 a 2.821439,2.821439 0 0 1 -2.81171,2.81171 H 4.4712542 A 2.821439,2.821439 0 0 1 1.6595443,109.18556 V 100.3418 A 2.821439,2.821439 0 0 1 4.4712542,97.530095 H 118.40874 a 2.821439,2.821439 0 0 1 2.81171,2.811705 z"
    class="cls-3"
    style="fill:#33a867;fill-rule:evenodd;stroke-width:1;stroke-miterlimit:0;stroke-dasharray:none;stroke:#6c6c6c;stroke-opacity:1" />
  <path id="path827"
    d="m 13.334464,1.6595443 h 8.853481 a 2.821439,2.821439 0 0 1 2.821439,2.8117099 V 118.40874 a 2.821439,2.821439 0 0 1 -2.81171,2.81171 h -8.86321 a 2.821439,2.821439 0 0 1 -2.840897,-2.81171 V 4.4712542 a 2.821439,2.821439 0 0 1 2.840897,-2.8117099 z"
    class="cls-4"
    style="fill:#47bcff;fill-rule:evenodd;stroke-width:1;stroke-miterlimit:0;stroke-dasharray:none;stroke:#6c6c6c;stroke-opacity:1" />
  <path id="path829"
    d="m 100.72124,1.6595443 h 8.85348 a 2.821439,2.821439 0 0 1 2.81171,2.8117099 V 118.40874 a 2.821439,2.821439 0 0 1 -2.81171,2.81171 h -8.85348 a 2.821439,2.821439 0 0 1 -2.81171,-2.81171 V 4.4712542 a 2.821439,2.821439 0 0 1 2.81171,-2.8117099 z"
    class="cls-5"
    style="fill:#fdba21;fill-rule:evenodd;stroke-width:1;stroke-miterlimit:0;stroke-dasharray:none;stroke:#6c6c6c;stroke-opacity:1" />
</svg>